<?xml version="1.0" standalone="no"?>
<!DOCTYPE svg PUBLIC "-//W3C//DTD SVG 20010904//EN"
 "http://www.w3.org/TR/2001/REC-SVG-20010904/DTD/svg10.dtd">
<svg version="1.0" xmlns="http://www.w3.org/2000/svg"
 width="192.000000pt" height="192.000000pt" viewBox="0 0 192.000000 192.000000"
 preserveAspectRatio="xMidYMid meet">
<metadata>
Created by potrace 1.10, written by Peter Selinger 2001-2011
</metadata>
<g transform="translate(0.000000,192.000000) scale(0.100000,-0.100000)"
fill="#8be75f" stroke="none">
<path d="M0 1622 c0 -16 36 -17 693 -15 380 2 812 3 960 3 231 0 267 2 267 15
0 13 -113 15 -960 15 -912 0 -960 -1 -960 -18z"/>
<path d="M958 1513 c-10 -3 -21 -15 -24 -28 -6 -23 -26 -34 -73 -41 -13 -2
-30 -5 -37 -8 -6 -2 -20 1 -30 9 -28 20 -67 -9 -62 -46 7 -46 -57 -55 -106
-15 -24 20 -33 22 -51 14 -46 -21 -50 -98 -5 -98 11 0 20 -2 20 -4 0 -4 -55
-121 -70 -148 -6 -10 -10 -24 -10 -32 0 -8 -7 -22 -16 -30 -8 -9 -17 -25 -19
-36 -2 -11 -11 -33 -19 -50 -37 -71 -44 -87 -50 -121 -6 -33 -3 -40 27 -66 19
-16 55 -35 80 -43 33 -9 47 -18 47 -30 0 -35 61 -70 160 -91 84 -18 370 -18
465 -1 101 19 154 45 168 82 8 20 21 33 37 36 61 14 89 26 115 54 22 23 26 35
21 57 -3 15 -8 38 -10 50 -2 13 -8 29 -15 36 -6 8 -20 41 -31 73 -11 32 -31
82 -44 109 -13 28 -31 67 -40 87 -9 20 -21 40 -27 44 -7 4 1 17 20 35 32 29
38 44 21 54 -5 3 -10 -3 -10 -14 0 -11 -4 -23 -10 -26 -5 -3 -10 2 -10 12 -1
17 -1 17 -11 0 -25 -43 -115 -63 -209 -46 -36 6 -80 13 -97 16 -36 6 -38 10
-21 48 15 32 30 32 123 -6 57 -22 85 -29 108 -23 48 10 107 35 107 45 0 12
-37 11 -62 -2 -15 -8 -19 -8 -14 0 4 6 -6 25 -23 42 -25 25 -34 28 -51 19 -11
-6 -23 -22 -26 -35 -6 -26 -18 -32 -29 -15 -3 5 -12 7 -20 3 -8 -3 -15 0 -15
6 0 21 -37 49 -51 40 -12 -8 -12 -11 1 -20 13 -9 13 -10 0 -6 -9 2 -16 18 -18
39 -4 52 -52 84 -104 71z m70 -36 c18 -14 15 -54 -7 -85 -18 -26 -18 -40 -10
-263 8 -226 16 -289 39 -289 5 0 10 -4 10 -10 0 -6 -33 -10 -80 -10 -111 0
-108 23 5 33 38 4 38 4 -8 5 -44 2 -47 4 -37 21 6 12 10 103 10 225 0 128 4
206 10 206 21 0 22 49 1 83 -26 43 -26 62 -1 87 19 19 40 18 68 -3z m-230 -70
c3 -12 -3 -17 -22 -17 -25 0 -35 18 -19 34 12 12 38 2 41 -17z m140 -4 c23
-21 35 -53 24 -68 -6 -9 -156 -40 -253 -52 -42 -6 -109 21 -109 43 0 11 -4 12
-19 4 -36 -19 -43 -4 -14 30 20 23 48 27 40 6 -7 -17 33 -36 73 -36 16 0 66
20 112 44 92 50 116 54 146 29z m328 -4 c9 -16 -21 -43 -40 -36 -9 4 -16 16
-16 27 0 15 7 20 24 20 14 0 28 -5 32 -11z m-340 -259 c1 -151 -8 -256 -24
-272 -6 -6 -21 -11 -35 -11 -14 -1 -23 -5 -20 -9 2 -5 -3 -8 -11 -8 -9 0 -16
2 -16 4 0 2 -3 11 -6 20 -5 12 0 16 19 16 31 0 51 23 42 50 -3 11 -9 20 -13
21 -4 0 -15 2 -24 4 -10 2 -20 -1 -24 -6 -9 -15 -34 -10 -34 6 0 8 -4 23 -9
33 -22 43 -51 110 -51 117 0 4 7 1 16 -6 14 -11 21 -8 50 24 38 41 42 62 16
76 -22 11 -40 2 -55 -29 -20 -39 -34 -34 -60 22 -14 29 -24 54 -23 55 2 2 23
5 47 8 24 3 69 12 99 19 30 8 69 14 85 13 l30 -2 1 -145z m444 72 c36 -77 140
-335 140 -349 0 -22 -53 -56 -107 -69 -111 -27 -262 19 -255 76 6 56 167 424
182 415 4 -3 22 -35 40 -73z m-661 -145 c49 -123 74 -197 66 -197 -14 0 -55
86 -102 215 l-32 90 2 -147 2 -148 35 -1 c19 0 44 -4 55 -9 26 -11 -200 -11
-235 0 -18 6 -4 8 48 9 l72 1 0 183 0 182 -41 -90 c-22 -49 -59 -130 -81 -180
-22 -49 -47 -95 -55 -102 -20 -16 107 -27 243 -21 57 3 104 2 104 -2 0 -18
-30 -40 -73 -54 -90 -30 -222 -13 -273 35 -26 24 -29 40 -14 67 14 25 160 333
171 361 6 16 13 21 19 15 6 -6 45 -99 89 -207z m512 198 l65 0 -29 -65 c-16
-36 -34 -71 -40 -78 -6 -8 -12 -22 -14 -32 -5 -35 -23 -71 -33 -65 -5 3 -7 0
-4 -8 3 -8 -6 -44 -21 -82 -14 -37 -25 -76 -25 -86 0 -25 -6 -24 -36 5 -31 28
-35 51 -41 265 l-4 163 58 -8 c32 -5 88 -9 124 -9z m-421 -95 c0 -23 -25 -27
-33 -6 -7 16 1 26 20 26 7 0 13 -9 13 -20z m-203 -139 c-1 -32 -5 -55 -8 -50
-3 6 -16 11 -27 12 -22 1 -27 8 -15 21 4 3 8 17 10 29 2 12 8 24 13 25 6 2 8
8 4 13 -3 5 1 9 10 9 11 0 14 -13 13 -59z m100 -79 c13 -21 1 -48 -16 -38 -12
8 -15 56 -3 56 4 0 12 -8 19 -18z m-167 -2 c0 -13 37 -13 46 1 4 8 9 8 17 0
14 -14 -9 -38 -38 -41 -45 -5 -52 -1 -47 25 4 24 22 36 22 15z m328 -33 c2
-11 -3 -17 -17 -17 -25 0 -38 19 -20 31 19 12 33 6 37 -14z m269 -118 c57 -21
18 -29 -152 -29 -171 0 -175 1 -165 19 5 11 22 21 37 23 50 6 256 -4 280 -13z
m208 -59 c0 -22 -67 -49 -159 -66 -96 -17 -361 -19 -438 -3 -98 19 -176 58
-162 80 3 5 173 8 382 7 326 -3 377 -5 377 -18z"/>
<path d="M965 1450 c-8 -25 1 -40 25 -40 10 0 22 5 25 10 11 17 -6 50 -25 50
-10 0 -21 -9 -25 -20z m41 -1 c10 -17 -13 -36 -27 -22 -12 12 -4 33 11 33 5 0
12 -5 16 -11z"/>
<path d="M827 1368 c-32 -17 -56 -32 -53 -35 2 -2 35 12 72 31 38 19 62 35 54
35 -8 0 -41 -14 -73 -31z"/>
<path d="M847 1213 c-10 -10 -8 -41 3 -48 19 -12 50 6 49 28 -1 16 -3 17 -6 5
-5 -20 -30 -31 -39 -16 -4 6 1 17 11 25 15 10 16 13 4 13 -9 0 -19 -3 -22 -7z"/>
<path d="M802 1067 c-18 -19 -20 -26 -9 -47 15 -31 52 -37 78 -14 23 21 24 47
3 68 -22 22 -47 20 -72 -7z m56 -6 c21 -13 10 -46 -16 -49 -27 -4 -40 22 -22
43 14 17 20 18 38 6z"/>
<path d="M1296 1192 c-59 -138 -127 -315 -122 -319 11 -11 175 -24 234 -19 77
7 84 10 72 39 -5 12 -36 87 -69 167 l-60 145 -1 -157 0 -158 43 0 c23 0 49 -5
57 -10 10 -7 -27 -10 -113 -10 -99 0 -128 3 -125 13 6 17 89 22 99 5 4 -7 11
-10 14 -7 3 4 4 90 3 192 l-3 186 -29 -67z m14 -160 l0 -108 -30 1 c-39 2 -61
23 -50 50 5 11 9 14 9 8 1 -15 37 -17 46 -3 3 5 0 7 -8 4 -8 -3 -18 0 -22 6
-8 13 14 110 25 110 4 0 10 9 13 20 11 44 17 15 17 -88z m90 -7 c9 6 7 -10 -5
-37 -4 -10 -11 -18 -16 -18 -11 0 -12 61 -1 87 6 15 8 13 10 -10 2 -15 7 -25
12 -22z"/>
<path d="M1079 1174 c-26 -8 -31 -46 -9 -68 16 -16 23 -18 43 -9 13 6 35 9 48
6 32 -6 57 20 40 41 -6 8 -24 16 -39 19 -15 3 -36 7 -47 10 -11 3 -27 3 -36 1z
m51 -27 c0 -17 -20 -37 -37 -37 -13 0 -18 32 -6 43 11 12 43 7 43 -6z"/>
<path d="M1107 1045 c-21 -21 -22 -44 -2 -51 15 -6 45 11 45 25 0 4 -6 15 -13
25 -13 17 -14 17 -30 1z"/>
<path d="M832 723 c70 -2 187 -2 260 0 73 1 16 3 -127 3 -143 0 -203 -2 -133
-3z"/>
<path d="M1402 1448 c-35 -35 11 -82 54 -53 29 19 31 41 5 55 -26 13 -44 13
-59 -2z m56 -25 c-4 -22 -38 -30 -49 -12 -11 19 -2 29 27 29 19 0 25 -5 22
-17z"/>
<path d="M1390 698 c-25 -27 -25 -43 1 -69 14 -14 27 -18 42 -13 52 16 72 58
41 88 -22 23 -60 20 -84 -6z m76 -13 c9 -21 -14 -45 -43 -45 -31 0 -42 29 -18
46 25 18 54 18 61 -1z"/>
<path d="M0 300 c0 -20 4 -20 960 -20 944 0 960 0 960 19 0 20 -16 20 -960 21
-956 0 -960 0 -960 -20z"/>
</g>
</svg>
